<?xml version="1.0" standalone="no"?><!DOCTYPE svg PUBLIC "-//W3C//DTD SVG 1.1//EN" "http://www.w3.org/Graphics/SVG/1.1/DTD/svg11.dtd"><svg t="1630566067484" class="icon" viewBox="0 0 1024 1024" version="1.1" xmlns="http://www.w3.org/2000/svg" p-id="8776" xmlns:xlink="http://www.w3.org/1999/xlink" width="200" height="200"><defs><style type="text/css"></style></defs><path d="M841.770667 165.333333l2.133333 6.826667 23.552 82.005333a32 32 0 0 1-17.834667 38.101334l-4.096 1.450666L387.84 424.96l476.117333 0.042667a32 32 0 0 1 31.701334 27.690666l0.298666 4.309334v362.581333a117.333333 117.333333 0 0 1-110.208 117.12l-7.125333 0.256h-533.333333a117.333333 117.333333 0 0 1-117.077334-110.208L128 819.541333v-358.016l-22.272-77.738666a117.333333 117.333333 0 0 1 73.642667-142.933334l6.826666-2.176 512.597334-146.986666a117.333333 117.333333 0 0 1 142.933333 73.642666zM267.562667 281.898667l-63.786667 18.304a53.333333 53.333333 0 0 0-37.802667 60.629333l1.237334 5.333333 14.677333 51.2 12.586667-3.584 73.088-131.882666z m202.965333-58.197334l-115.968 33.28-73.088 131.84 115.925333-33.237333 73.130667-131.882667z m202.965333-58.197333l-115.925333 33.28-73.130667 131.84 115.925334-33.237333 73.130666-131.882667z m78.805334-9.984l-64.853334 116.906667 109.568-31.402667-14.634666-51.242667a53.248 53.248 0 0 0-30.08-34.261333z" p-id="8777" fill="#515151"></path></svg>