<?xml version="1.0" standalone="no"?><!DOCTYPE svg PUBLIC "-//W3C//DTD SVG 1.1//EN" "http://www.w3.org/Graphics/SVG/1.1/DTD/svg11.dtd"><svg t="1630566226309" class="icon" viewBox="0 0 1088 1024" version="1.1" xmlns="http://www.w3.org/2000/svg" p-id="12313" xmlns:xlink="http://www.w3.org/1999/xlink" width="212.5" height="200"><defs><style type="text/css"></style></defs><path d="M448 640h60.032v60.992H448zM576 640h60.032v60.992H576zM704 640h60.032v60.992H704z" fill="#515151" p-id="12314"></path><path d="M131.968 958.72c0 35.968 28.8 65.28 64.384 65.28h823.232c35.584 0 64.384-29.248 64.384-65.28l-124.032-385.344V384h-126.464c0 0.704 0.32 1.344 0.32 1.984 0 63.872-98.176 52.352-196.544 62.016h-62.464c-97.792-9.6-193.6 1.856-193.6-62.016 0-0.704 0.32-1.344 0.32-1.984h-124.16v128H64v188.032h64V576h128.576l-124.608 382.72z m186.048-256.704h64v-60.992h-64l1.024-67.008h67.008v64h60.032v-64h67.968v64h60.032v-64h67.968v64h60.032v-64h67.968v64h60.032v-64h67.968v67.008h-64v60.992h64v67.008h-67.008v-64h-61.184v64h-67.264v-64H640.832v60.992h0.448v3.008H574.656v-64h-62.208v64H446.144v-64H384v64H318.016v-67.008zM318.656 832h578.624v64H318.656v-64zM1025.344 192v67.136H956.16l-0.128-193.728-698.432 2.624v191.104H189.44V192h-60.032v192h60.032V316.864h835.968V384h62.08V192h-62.144z" fill="#515151" p-id="12315"></path></svg>